<svg width="119" height="26" viewBox="0 0 119 26" fill="none" xmlns="http://www.w3.org/2000/svg">
<path d="M15.9153 1.11308V19.1389C15.9153 20.1017 16.5135 20.4929 17.381 20.1017L18.518 19.5902C19.2359 19.2591 19.5648 18.7776 19.5648 17.9952V2.25677C19.5648 1.47425 19.2359 0.992863 18.518 0.661793L17.381 0.150143C17.1563 0.0489063 16.9497 -1.90735e-06 16.7668 -1.90735e-06C16.2437 -1.90735e-06 15.9153 0.399643 15.9153 1.11308ZM84.9008 0.270704C84.4521 0.270704 84.1829 0.541407 84.1829 0.992865V19.2591C84.1829 19.7104 84.4521 19.9812 84.9008 19.9812H87.1444C87.5931 19.9812 87.8625 19.7104 87.8625 19.2591V0.992865C87.8625 0.541407 87.5931 0.270704 87.1444 0.270704H84.9008ZM37.8135 0.270704C37.3647 0.270704 37.0954 0.541407 37.0954 0.992865V19.2591C37.0954 19.7104 37.3647 19.9812 37.8135 19.9812H39.8179C40.2666 19.9812 40.5359 19.7104 40.5359 19.2591V18.4768C41.4034 19.4696 43.0189 20.222 44.6043 20.222C48.1046 20.222 51.126 17.0323 51.126 12.9998C51.126 8.90739 48.0745 5.77763 44.5145 5.77763C43.0787 5.77763 41.6726 6.4095 40.7453 7.37244V0.992865C40.7453 0.541407 40.476 0.270704 40.0272 0.270704H37.8135ZM40.6855 12.9998C40.6855 10.803 42.241 9.29831 44.0958 9.29831C45.9505 9.29831 47.5062 10.803 47.5062 12.9998C47.5062 15.2268 45.9505 16.7012 44.0958 16.7012C42.241 16.7012 40.6855 15.2268 40.6855 12.9998ZM89.5377 12.9998C89.5377 17.0925 92.589 20.222 96.149 20.222C97.8243 20.222 99.2304 19.4999 100.128 18.4467V19.2591C100.128 19.7104 100.397 19.9812 100.846 19.9812H102.85C103.299 19.9812 103.568 19.7104 103.568 19.2591V6.7404C103.568 6.28928 103.299 6.01824 102.85 6.01824H100.846C100.397 6.01824 100.128 6.28928 100.128 6.7404V7.61321C99.2903 6.59008 97.7645 5.77763 96.1789 5.77763C92.5292 5.77763 89.5377 8.90739 89.5377 12.9998ZM93.1575 12.9998C93.1575 10.7731 94.7132 9.29831 96.5679 9.29831C98.4226 9.29831 99.9784 10.7731 99.9784 12.9998C99.9784 15.1965 98.4226 16.7012 96.5679 16.7012C94.7132 16.7012 93.1575 15.1965 93.1575 12.9998ZM71.9172 7.55319V6.7404C71.9172 6.28928 71.6481 6.01824 71.1994 6.01824H69.195C68.7462 6.01824 68.4771 6.28928 68.4771 6.7404V25.0371C68.4771 25.4882 68.7462 25.7591 69.195 25.7591H71.4087C71.8575 25.7591 72.1268 25.4882 72.1268 25.0371V18.6272C72.9943 19.53 74.4004 20.222 75.8663 20.222C79.516 20.222 82.5073 17.0925 82.5073 12.9998C82.5073 8.90739 79.4562 5.77763 75.8962 5.77763C74.2209 5.77763 72.8148 6.49979 71.9172 7.55319ZM72.067 12.9998C72.067 10.803 73.6226 9.29831 75.4773 9.29831C77.3322 9.29831 78.8877 10.803 78.8877 12.9998C78.8877 15.2268 77.3322 16.7012 75.4773 16.7012C73.6226 16.7012 72.067 15.2268 72.067 12.9998ZM52.6217 12.9998C52.6217 17.1827 55.7928 20.222 59.7117 20.222C63.5709 20.222 66.8017 17.1827 66.8017 12.9998C66.8017 8.81693 63.6307 5.77763 59.7117 5.77763C55.8527 5.77763 52.6217 8.81693 52.6217 12.9998ZM56.2415 12.9998C56.2415 10.8634 57.7971 9.29831 59.7117 9.29831C61.6262 9.29831 63.1821 10.8634 63.1821 12.9998C63.1821 15.1363 61.6262 16.7012 59.7117 16.7012C57.7971 16.7012 56.2415 15.1363 56.2415 12.9998ZM21.2402 12.9998C21.2402 17.1827 24.4112 20.222 28.3302 20.222C32.1892 20.222 35.4202 17.1827 35.4202 12.9998C35.4202 8.81693 32.2492 5.77763 28.3302 5.77763C24.4712 5.77763 21.2402 8.81693 21.2402 12.9998ZM24.86 12.9998C24.86 10.8634 26.4156 9.29831 28.3302 9.29831C30.2449 9.29831 31.8004 10.8634 31.8004 12.9998C31.8004 15.1363 30.2449 16.7012 28.3302 16.7012C26.4156 16.7012 24.86 15.1363 24.86 12.9998ZM0 12.9998C0 17.0925 2.96172 19.9213 6.70108 19.9213C8.37643 19.9213 9.66282 19.1389 10.4108 18.3263C10.3807 21.1852 8.8849 22.4791 6.31229 22.4791C4.93614 22.4791 3.64983 22.0578 2.15395 21.0949C1.76508 20.824 1.31624 20.9141 1.10699 21.3355L0.209458 23.1111C7.61986e-07 23.5324 0.0599081 23.9237 0.478652 24.1944C2.33346 25.3981 4.51726 26 6.40205 26C11.3382 26 14.0604 23.3217 14.0604 17.1525V6.7404C14.0604 6.28928 13.7913 6.01824 13.3425 6.01824H11.3081C10.8595 6.01824 10.5902 6.28928 10.5902 6.7404V7.52292C9.7825 6.52989 8.28667 5.77763 6.79101 5.77763C3.14116 5.77763 0 8.90739 0 12.9998ZM3.56004 12.9698C3.56004 10.7428 5.14558 9.26839 7.0302 9.26839C8.91499 9.26839 10.4707 10.7428 10.4707 12.9698C10.4707 15.1664 8.91499 16.6713 7.0302 16.6713C5.14558 16.6713 3.56004 15.1664 3.56004 12.9698ZM115.804 6.01824C115.355 6.01824 115.086 6.19882 114.966 6.59008L112.154 14.8054L108.923 6.59008C108.774 6.19882 108.534 6.01824 108.115 6.01824H105.393C104.855 6.01824 104.645 6.34948 104.884 6.86078L110.449 19.4999L110 20.4628C109.312 21.9677 108.624 22.5392 107.936 22.5392C107.547 22.5392 107.128 22.4188 106.739 22.2384C106.32 22.0277 105.961 22.0879 105.752 22.5093L104.974 24.0136C104.795 24.3751 104.825 24.736 105.184 25.0068C105.902 25.5786 106.769 26 107.966 26C110.628 26 112.184 24.0136 113.62 20.3426L118.915 6.86078C119.124 6.34948 118.945 6.01824 118.406 6.01824H115.804Z" fill="#EE2033"/>
</svg>
