<svg width="552" height="583" viewBox="0 0 552 583" fill="none" xmlns="http://www.w3.org/2000/svg">
<path d="M234.141 61.8401C148.5 59.0004 116.969 123.351 105.417 148.533C95 199.5 147.912 220.365 161.115 222.842C169.036 225.814 191.646 224.081 201.96 222.842C261.371 207.98 284.5 178.5 291.077 115.095C291.077 85 266.5 65.0004 234.141 61.8401Z" fill="#D9D9D9"/>
<path d="M404.948 209.219C411.879 166.615 447.031 152.249 471.785 152.249C531 148.533 548.525 193.119 551 207.98C557.5 286.5 515 302.105 465.597 302.105C410.5 298.389 404.948 261.235 404.948 209.219Z" fill="#D9D9D9"/>
<path d="M422.276 507.692C426 416.044 388.032 395.403 375.242 388.798C349 381.367 347.187 406.137 345.537 411.091C333 503 382.669 533.7 393.808 536.177H402.472C415.345 530.232 421.038 514.71 422.276 507.692Z" fill="#D9D9D9"/>
<path d="M127.696 404.898C135.618 373.193 165.653 360.313 179.681 357.836C228 348 258 400.356 258 432.5C253.5 477 229.19 492.004 221.764 492.83C171 502 116.5 460.63 127.696 404.898Z" fill="#D9D9D9"/>
<path d="M214.337 276.097H138.836C123.983 273.124 103.767 264.95 95.5152 261.235C82.6428 254.299 58.7959 255.868 48.4815 257.519C5.90363 277.335 -1.44023 315.315 0.210077 331.828C3.18063 363.533 14 393 62.0966 381.367C84.8708 372.45 91.1794 367.59 100.256 356.443C87.8788 371.718 113.871 340.343 115.319 335.543C128.825 290.772 194.534 295.086 216.813 298.389C275.234 304.334 296.44 366.918 299.741 397.467L298 469.299C292.059 493.078 295.615 513.059 296.028 520.077C299.741 559.001 347.6 579.524 361.627 582.001C372 583.832 369.738 560.367 368.5 555.001C364.925 539.501 336.873 491.592 324.495 469.299C304.401 413 327.796 364.028 334.397 355.359C351.23 328.608 384.319 338.433 398.759 346.69C431.435 365.515 432.5 370.5 443.5 401C443.5 412.89 443.937 436.395 446 443C450.951 459.844 476.736 465.996 484.163 463.107C512.5 463.107 513.868 428.016 517.581 416.044C519.562 388.303 512.63 375.587 508.917 372.698C503.966 365.762 479.624 358.249 468.072 355.359C443.317 348.424 420.626 336.782 412.374 331.828C376.728 311.021 357.914 277.748 352.963 263.712C346.032 237.951 350.075 209.219 352.963 198.073C356.924 178.257 369.466 159.267 375.242 152.249C386.134 131.443 410.357 119.583 438 110.5C499.015 105 498.19 68.0324 499.015 61.8401C499.015 29.1443 456.003 9.86666 439.5 4.49991C426.628 0.53678 412.787 0.741862 402.472 1.15469C351.973 11.0625 345.124 49.0425 348.012 66.794C355.934 101.471 354.613 122.525 352.963 128.718C335.14 237.704 253.12 272.381 214.337 276.097Z" fill="#D9D9D9"/>
</svg>
