<svg width="74" height="20" viewBox="0 0 74 20" fill="none" xmlns="http://www.w3.org/2000/svg">
<path d="M11.5199 0C9.52624 0 7.50099 0.886565 4.9057 2.88022V0.506654H0V19.4934H5.22225V7.68973C7.50089 5.88606 8.54456 5.31602 9.39951 5.31602C10.4116 5.31602 11.0766 5.9493 11.0766 7.53131V19.4934H16.2976V7.65805C18.5762 5.88604 19.5896 5.31602 20.475 5.31602C21.4882 5.31602 22.1519 5.9493 22.1519 7.53131V19.4934H27.373V5.69608C27.373 1.42378 24.936 0 22.5941 0C20.6004 0 18.575 0.823217 15.9164 2.84854C15.0639 0.727005 13.1969 0 11.5199 0ZM37.976 0C32.7866 0 28.4825 4.46227 28.4825 9.99993C28.4825 15.5376 32.7866 20 37.976 20C40.5396 20 42.755 19.0514 44.4649 16.9932V19.4934H49.4336V0.506654H44.4649V3.00682C42.755 0.948614 40.5396 0 37.976 0ZM50.3507 0.506654C52.5026 3.86045 54.9394 6.86718 57.7879 9.87391C54.9394 13.0061 52.5026 16.2662 50.3507 19.4934H56.648C58.1349 17.0882 59.8119 14.9046 61.7433 12.8478C63.6419 14.9046 65.2237 17.0882 66.7118 19.4934H73.0724C70.8889 16.1712 68.5154 13.0061 65.667 9.87391C68.4837 6.86718 70.8889 3.76668 73.0724 0.506654H66.8386C65.2883 2.91179 63.6114 4.93694 61.7433 6.93046C59.8448 4.93694 58.1678 2.91179 56.648 0.506654H50.3507ZM38.7663 4.39904C41.867 4.39904 44.3674 6.89923 44.3674 9.99993C44.3674 13.1006 41.867 15.601 38.7663 15.601C35.6656 15.601 33.1653 13.1018 33.1653 9.99993C33.1653 6.89801 35.6656 4.39904 38.7663 4.39904ZM38.7663 5.6644C36.3927 5.6644 34.4623 7.59464 34.4624 9.99993C34.4623 12.4052 36.3927 14.3356 38.7663 14.3356C41.14 14.3356 43.0702 12.4052 43.0702 9.99993C43.0702 7.59464 41.14 5.6644 38.7663 5.6644Z" fill="black"/>
</svg>
